<svg width="183" height="236" viewBox="0 0 183 236" fill="none" xmlns="http://www.w3.org/2000/svg">
<path d="M174.839 49.3773L152.039 26.444V26.7106C139.32 14.4356 122.249 7.70966 104.575 8.00964C86.901 8.30963 70.0683 15.611 57.7728 28.3106C45.7753 40.7513 39.0713 57.3608 39.0713 74.644C39.0713 91.9272 45.7753 108.537 57.7728 120.977L80.5728 143.911" stroke="#F54900" stroke-width="16" stroke-linecap="round" stroke-linejoin="round"/>
<path d="M8 186.338L30.8 209.138C43.5195 221.413 60.5903 228.139 78.2643 227.839C95.9384 227.539 112.771 220.238 125.067 207.538C137.064 195.097 143.768 178.488 143.768 161.205C143.768 143.921 137.064 127.312 125.067 114.871L102.267 92.0712" stroke="#F54900" stroke-width="16" stroke-linecap="round" stroke-linejoin="round"/>
</svg>
